<svg xmlns="http://www.w3.org/2000/svg" xmlns:xlink="http://www.w3.org/1999/xlink" viewBox="0 0 533.15 559.79"><defs><style>.cls-1{isolation:isolate;}.cls-2{fill:#e4b028;}.cls-2,.cls-3{mix-blend-mode:multiply;}.cls-3{fill:#e49828;opacity:0.29;}</style></defs><title>star</title><g class="cls-1"><g id="Layer_1" data-name="Layer 1"><polygon class="cls-2" points="188.55 559.78 116.47 521.49 44.06 559.16 58.2 478.77 0 421.55 80.82 410.16 117.26 337.13 153.07 410.47 233.79 422.56 175.1 479.28 188.55 559.78"/><polygon class="cls-3" points="171.83 533.82 116.56 504.45 61.05 533.34 71.89 471.7 27.27 427.83 89.24 419.09 117.18 363.1 144.63 419.33 206.52 428.6 161.52 472.09 171.83 533.82"/><polygon class="cls-3" points="155.12 507.85 116.67 487.42 78.04 507.51 85.58 464.63 54.54 434.1 97.65 428.03 117.09 389.06 136.19 428.19 179.25 434.64 147.94 464.9 155.12 507.85"/><image width="1920" height="1080" transform="translate(72.35) scale(0.24)" xlink:href="D:%5CDesktop%20Files%5CStudium%5C7th%20quarter%5C00%20Project%20Startup%5CStylesheet_but_with_bigger_letters.png"/></g></g></svg>